<?xml version="1.0" encoding="UTF-8" ?>
<!DOCTYPE svg PUBLIC "-//W3C//DTD SVG 1.1//EN" "http://www.w3.org/Graphics/SVG/1.1/DTD/svg11.dtd">
<svg width="183pt" height="42pt" viewBox="0 0 183 42" version="1.1" xmlns="http://www.w3.org/2000/svg">
<path fill="#eb4814" d=" M 0.00 0.00 L 183.00 0.00 L 183.00 42.00 L 0.00 42.00 L 0.00 0.00 Z" />
<path fill="#e3e3e3" d=" M 93.14 7.89 C 93.19 5.21 95.89 4.97 97.93 4.63 C 99.41 6.86 99.43 9.13 97.95 11.36 C 95.81 11.06 93.04 10.70 93.14 7.89 Z" />
<path fill="#e3e3e3" d=" M 102.65 6.09 C 104.38 5.59 106.12 5.12 107.87 4.68 C 107.90 7.49 107.90 10.31 107.89 13.12 C 109.81 13.03 111.73 12.98 113.65 12.92 C 118.28 15.19 119.96 21.22 117.70 25.73 C 116.80 27.96 114.38 28.79 112.54 30.04 C 110.21 30.01 107.89 29.97 105.57 29.97 C 104.85 29.63 103.41 28.94 102.70 28.60 C 102.72 21.10 102.79 13.59 102.65 6.09 Z" />
<path fill="#e3e3e3" d=" M 14.62 8.01 C 16.86 8.03 19.10 8.04 21.34 8.06 C 22.58 8.58 23.82 9.08 25.07 9.56 C 24.58 10.75 24.11 11.95 23.66 13.16 C 21.31 12.52 18.89 11.55 16.43 12.09 C 10.21 13.66 10.19 24.28 16.38 25.89 C 19.00 26.50 21.57 25.55 24.05 24.85 C 24.47 26.14 24.89 27.43 25.33 28.71 C 20.88 30.01 15.70 31.10 11.42 28.74 C 4.48 25.19 4.46 13.91 10.92 9.87 C 12.11 9.17 13.39 8.63 14.62 8.01 Z" />
<path fill="#e3e3e3" d=" M 66.06 9.07 C 67.77 8.60 69.48 8.12 71.20 7.65 C 71.21 9.43 71.22 11.21 71.22 12.99 C 73.12 13.00 75.01 13.00 76.90 13.01 C 76.90 14.34 76.90 15.66 76.90 16.99 C 75.00 17.00 73.09 17.00 71.19 17.01 C 71.12 20.07 71.17 23.15 71.97 26.12 C 73.64 25.98 75.31 25.84 76.97 25.67 C 77.15 26.57 77.50 28.38 77.68 29.29 C 74.65 30.05 70.98 30.88 68.30 28.75 C 66.80 27.68 66.24 25.85 66.21 24.08 C 65.97 19.08 66.25 14.08 66.06 9.07 Z" />
<path fill="#e3e3e3" d=" M 141.06 9.08 C 142.77 8.60 144.48 8.12 146.20 7.65 C 146.21 9.43 146.22 11.21 146.22 12.99 C 148.12 13.00 150.01 13.00 151.90 13.01 C 151.90 14.34 151.90 15.66 151.90 16.99 C 150.00 17.00 148.09 17.00 146.19 17.01 C 146.12 20.07 146.18 23.14 146.95 26.12 C 148.62 25.98 150.30 25.84 151.97 25.67 C 152.15 26.57 152.51 28.37 152.69 29.27 C 148.96 30.52 143.40 30.89 141.62 26.51 C 140.56 20.78 141.43 14.88 141.06 9.08 Z" />
<path fill="#e3e3e3" d=" M 32.59 13.22 C 36.10 12.32 40.52 13.20 42.35 16.64 C 44.76 20.34 43.92 25.66 40.55 28.49 C 36.81 31.22 30.90 30.49 28.30 26.54 C 25.48 22.00 27.11 14.86 32.59 13.22 Z" />
<path fill="#e3e3e3" d=" M 49.65 13.05 C 53.26 13.18 57.98 11.96 60.45 15.39 C 62.71 19.90 61.54 25.15 61.81 30.00 C 60.07 30.00 58.33 30.00 56.60 30.00 C 56.48 25.96 57.05 21.81 56.04 17.84 C 54.96 16.81 53.25 17.12 51.91 16.76 C 51.89 21.17 51.90 25.58 51.90 30.00 C 50.29 29.99 48.67 29.99 47.05 30.00 C 47.06 24.80 47.08 19.60 47.03 14.41 C 47.68 14.07 49.00 13.39 49.65 13.05 Z" />
<path fill="#e3e3e3" d=" M 80.58 14.18 C 84.21 12.88 88.06 12.84 91.87 13.07 C 91.77 14.36 91.67 15.66 91.58 16.95 C 89.66 16.99 87.74 17.00 85.82 17.02 C 85.82 21.35 85.81 25.67 85.82 29.99 C 84.08 29.99 82.34 30.00 80.60 30.00 C 80.59 24.73 80.62 19.46 80.58 14.18 Z" />
<path fill="#e3e3e3" d=" M 93.72 13.02 C 95.42 13.01 97.12 13.01 98.82 13.00 C 98.81 18.66 98.81 24.33 98.82 30.00 C 97.12 29.99 95.42 29.99 93.72 29.98 C 93.72 24.33 93.72 18.67 93.72 13.02 Z" />
<path fill="#e3e3e3" d=" M 122.07 13.00 C 123.68 13.00 125.29 13.00 126.91 13.00 C 126.97 16.89 126.57 20.83 127.31 24.68 C 128.18 26.24 130.11 25.90 131.59 26.21 C 131.61 21.81 131.60 17.40 131.60 13.00 C 133.34 13.00 135.08 13.00 136.82 13.01 C 136.82 18.28 136.77 23.55 136.89 28.82 C 133.58 30.20 130.02 30.07 126.51 30.05 C 125.00 28.80 122.74 27.98 122.35 25.82 C 121.73 21.58 122.16 17.27 122.07 13.00 Z" />
<path fill="#e3e3e3" d=" M 160.40 13.43 C 163.90 12.18 168.50 13.04 170.47 16.44 C 171.32 18.51 171.44 20.77 171.75 22.96 C 167.72 23.01 163.68 22.97 159.65 23.10 C 160.69 24.13 161.74 25.15 162.79 26.16 C 165.20 26.15 167.57 25.80 169.87 25.07 C 170.12 26.36 170.38 27.65 170.64 28.94 C 166.75 30.29 161.98 30.93 158.38 28.52 C 153.11 24.95 154.34 15.46 160.40 13.43 Z" />
<path fill="#eb4814" d=" M 34.15 17.01 C 34.86 16.99 36.27 16.95 36.97 16.93 C 38.78 19.77 38.79 23.24 36.97 26.08 C 36.26 26.05 34.84 26.01 34.13 25.99 C 33.48 25.22 32.82 24.46 32.16 23.69 C 32.16 22.22 32.16 20.76 32.17 19.29 C 32.83 18.53 33.49 17.77 34.15 17.01 Z" />
<path fill="#eb4814" d=" M 107.92 17.19 C 109.26 17.09 110.59 16.97 111.92 16.83 C 113.35 19.08 114.17 22.18 112.58 24.57 C 111.62 26.22 109.48 25.84 107.90 26.24 C 107.89 23.22 107.90 20.21 107.92 17.19 Z" />
<path fill="#eb4814" d=" M 162.12 16.97 C 162.80 16.96 164.16 16.95 164.85 16.94 C 165.44 17.95 166.03 18.96 166.61 19.98 C 164.32 19.99 162.03 19.97 159.74 19.93 C 160.54 18.95 161.33 17.96 162.12 16.97 Z" />
</svg>
