<?xml version="1.0" encoding="UTF-8" ?>
<!DOCTYPE svg PUBLIC "-//W3C//DTD SVG 1.1//EN" "http://www.w3.org/Graphics/SVG/1.1/DTD/svg11.dtd">
<svg width="128pt" height="43pt" viewBox="0 0 128 43" version="1.1" xmlns="http://www.w3.org/2000/svg">
<path fill="#eb4814" d=" M 0.00 0.00 L 128.00 0.00 L 128.00 43.00 L 0.00 43.00 L 0.00 0.00 Z" />
<path fill="#e3e3e3" d=" M 31.11 9.02 C 31.13 6.29 33.92 5.92 36.00 5.58 C 37.34 7.81 37.36 10.20 35.99 12.42 C 33.93 12.08 31.16 11.71 31.11 9.02 Z" />
<path fill="#e3e3e3" d=" M 9.13 9.00 C 10.94 9.00 12.74 9.00 14.55 9.00 C 14.55 12.00 14.55 15.00 14.55 18.00 C 17.08 18.00 19.60 18.00 22.13 18.00 C 22.13 15.00 22.13 12.00 22.13 9.00 C 23.94 9.00 25.74 9.00 27.55 9.00 C 27.55 16.33 27.55 23.66 27.55 31.00 C 25.74 31.00 23.94 31.00 22.13 31.00 C 22.13 28.00 22.13 25.00 22.13 22.00 C 19.60 22.00 17.07 22.00 14.55 22.00 C 14.55 25.00 14.55 28.00 14.55 31.00 C 12.74 31.00 10.94 31.00 9.13 31.00 C 9.13 23.67 9.13 16.33 9.13 9.00 Z" />
<path fill="#e3e3e3" d=" M 57.07 10.05 C 58.80 9.62 60.51 9.15 62.20 8.60 C 62.21 10.40 62.22 12.20 62.23 14.00 C 64.12 14.00 66.01 14.00 67.90 14.00 C 67.90 15.33 67.90 16.66 67.90 17.99 C 65.98 18.00 64.07 18.00 62.15 18.01 C 62.13 21.08 62.28 24.15 62.90 27.16 C 64.59 27.01 66.28 26.86 67.96 26.67 C 68.15 27.59 68.51 29.45 68.69 30.37 C 65.85 30.82 62.62 31.83 59.98 30.20 C 58.10 29.26 57.21 27.16 57.22 25.14 C 56.97 20.11 57.22 15.08 57.07 10.05 Z" />
<path fill="#e3e3e3" d=" M 31.72 14.02 C 33.42 14.01 35.12 14.00 36.82 13.99 C 36.82 19.66 36.82 25.34 36.82 31.01 C 35.12 31.00 33.42 30.99 31.72 30.98 C 31.72 25.33 31.72 19.67 31.72 14.02 Z" />
<path fill="#e3e3e3" d=" M 41.70 15.83 C 44.62 12.90 49.04 14.00 52.64 14.65 C 52.42 15.97 52.20 17.30 51.98 18.63 C 49.56 18.12 46.93 17.50 44.70 19.03 C 47.22 20.36 50.13 20.98 52.41 22.71 C 53.77 24.66 53.75 28.00 51.76 29.56 C 48.27 31.92 43.69 31.25 39.92 29.97 C 40.18 28.63 40.43 27.29 40.69 25.95 C 43.34 26.72 46.06 27.15 48.82 27.10 C 47.90 24.94 45.71 24.24 43.65 23.64 C 43.01 23.32 41.72 22.67 41.08 22.35 C 40.63 20.20 39.64 17.49 41.70 15.83 Z" />
<path fill="#e3e3e3" d=" M 76.62 13.88 C 79.35 14.00 82.34 13.76 84.62 15.56 C 87.92 18.41 88.75 23.67 86.35 27.35 C 83.68 32.17 76.02 32.32 72.72 28.09 C 70.73 25.74 70.74 22.35 71.36 19.49 C 71.94 16.77 74.61 15.43 76.62 13.88 Z" />
<path fill="#e3e3e3" d=" M 90.57 15.15 C 95.92 13.39 101.59 14.17 107.11 14.00 C 108.23 17.64 109.42 21.26 110.62 24.88 C 111.61 21.27 112.52 17.64 113.40 14.00 C 115.19 14.00 116.98 13.99 118.77 13.99 C 117.07 20.01 115.18 25.99 112.59 31.69 C 111.57 33.85 110.17 36.19 107.71 36.86 C 105.85 37.08 103.97 36.98 102.10 36.99 C 102.12 35.75 102.14 34.51 102.16 33.27 C 104.45 33.15 106.75 32.75 108.46 31.07 C 106.01 25.96 103.99 20.67 102.27 15.28 C 102.20 19.15 98.28 17.72 95.81 18.10 C 95.82 22.40 95.81 26.70 95.82 31.00 C 94.08 31.00 92.34 31.00 90.60 31.00 C 90.60 25.72 90.62 20.43 90.57 15.15 Z" />
<path fill="#eb4814" d=" M 78.14 18.01 C 78.87 17.99 80.32 17.94 81.05 17.92 C 82.71 20.83 82.70 24.18 81.05 27.08 C 80.32 27.06 78.87 27.01 78.14 26.99 C 77.48 26.22 76.82 25.45 76.16 24.69 C 76.16 23.23 76.16 21.78 76.16 20.33 C 76.82 19.55 77.48 18.78 78.14 18.01 Z" />
</svg>
