<?xml version="1.0" encoding="UTF-8" ?>
<!DOCTYPE svg PUBLIC "-//W3C//DTD SVG 1.1//EN" "http://www.w3.org/Graphics/SVG/1.1/DTD/svg11.dtd">
<svg width="296pt" height="39pt" viewBox="0 0 296 39" version="1.1" xmlns="http://www.w3.org/2000/svg">
<path fill="#eb4814" d=" M 0.00 0.00 L 296.00 0.00 L 296.00 39.00 L 0.00 39.00 L 0.00 0.00 Z" />
<path fill="#e3e3e3" d=" M 43.99 6.05 C 45.61 5.60 47.24 5.14 48.87 4.67 C 48.90 7.45 48.91 10.23 48.90 13.01 C 50.75 12.99 52.61 12.98 54.47 12.97 C 55.83 14.12 57.77 14.99 58.19 16.90 C 59.24 21.18 58.71 25.64 58.81 30.00 C 57.07 30.00 55.33 30.00 53.60 30.00 C 53.51 26.17 53.95 22.29 53.22 18.50 C 52.81 16.59 50.30 17.21 48.91 16.77 C 48.89 21.18 48.90 25.59 48.90 30.00 C 47.28 30.00 45.67 30.00 44.06 30.00 C 44.02 22.02 44.14 14.03 43.99 6.05 Z" />
<path fill="#e3e3e3" d=" M 174.13 8.03 C 174.12 5.32 176.82 4.88 178.93 4.65 C 180.44 6.82 180.43 9.18 178.93 11.35 C 176.84 11.09 174.15 10.71 174.13 8.03 Z" />
<path fill="#e3e3e3" d=" M 183.65 6.11 C 185.37 5.58 187.11 5.10 188.87 4.68 C 188.90 7.50 188.90 10.31 188.89 13.13 C 190.79 13.04 192.70 12.97 194.60 12.91 C 199.27 15.14 200.95 21.19 198.71 25.71 C 197.80 27.95 195.39 28.80 193.53 30.04 C 191.22 30.00 188.91 29.99 186.60 29.97 C 185.88 29.63 184.42 28.94 183.69 28.59 C 183.72 21.10 183.79 13.60 183.65 6.11 Z" />
<path fill="#e3e3e3" d=" M 265.72 5.13 C 267.67 5.06 269.63 4.98 271.58 4.89 C 273.29 6.26 275.82 7.41 275.88 9.94 C 277.04 15.02 270.91 17.33 270.30 22.00 C 268.80 21.99 267.30 21.98 265.81 21.96 C 265.70 18.57 267.47 15.79 269.64 13.38 C 271.03 12.14 270.35 10.28 270.14 8.71 C 267.87 8.98 265.65 9.52 263.44 10.09 C 263.04 8.86 262.64 7.63 262.24 6.39 C 263.39 5.95 264.55 5.53 265.72 5.13 Z" />
<path fill="#e3e3e3" d=" M 11.24 7.99 C 13.17 8.00 15.10 8.01 17.02 8.03 C 18.00 13.00 18.93 17.97 20.17 22.87 C 21.73 18.71 22.34 14.23 24.07 10.13 C 25.54 9.98 27.01 9.96 28.49 9.90 C 29.62 14.29 30.92 18.62 32.23 22.96 C 33.60 18.04 34.77 13.06 35.68 8.04 C 37.54 8.01 39.41 8.01 41.27 8.02 C 39.57 15.42 37.88 22.84 35.35 30.01 C 33.62 30.01 31.89 30.00 30.16 30.00 C 28.67 25.80 27.31 21.55 26.00 17.29 C 24.77 21.54 23.48 25.79 22.03 29.97 C 20.40 29.99 18.78 30.00 17.16 30.02 C 14.53 22.87 12.90 15.41 11.24 7.99 Z" />
<path fill="#e3e3e3" d=" M 95.63 8.02 C 97.86 8.03 100.09 8.04 102.33 8.06 C 103.57 8.58 104.82 9.08 106.07 9.57 C 105.60 10.76 105.12 11.96 104.65 13.16 C 101.62 12.23 97.98 10.97 95.19 13.21 C 91.31 16.50 92.06 24.56 97.45 25.90 C 100.04 26.48 102.60 25.55 105.07 24.85 C 105.49 26.14 105.91 27.44 106.32 28.73 C 101.88 30.02 96.71 31.08 92.44 28.75 C 85.47 25.21 85.46 13.87 91.96 9.85 C 93.14 9.15 94.40 8.63 95.63 8.02 Z" />
<path fill="#e3e3e3" d=" M 147.06 9.10 C 148.76 8.59 150.47 8.10 152.20 7.66 C 152.21 9.44 152.22 11.22 152.23 12.99 C 154.12 13.00 156.01 13.00 157.90 13.00 C 157.90 14.33 157.90 15.66 157.90 16.99 C 156.00 17.00 154.09 17.00 152.19 17.01 C 152.13 20.07 152.15 23.16 152.98 26.13 C 154.64 25.99 156.31 25.84 157.97 25.67 C 158.15 26.57 158.50 28.37 158.68 29.27 C 155.65 30.07 151.98 30.88 149.29 28.75 C 147.81 27.68 147.24 25.87 147.21 24.11 C 146.97 19.11 147.25 14.10 147.06 9.10 Z" />
<path fill="#e3e3e3" d=" M 222.06 9.09 C 223.76 8.59 225.47 8.11 227.20 7.66 C 227.21 9.44 227.22 11.22 227.23 12.99 C 229.12 13.00 231.01 13.00 232.90 13.01 C 232.90 14.34 232.90 15.66 232.90 16.99 C 230.99 17.00 229.09 17.00 227.19 17.01 C 227.12 20.06 227.17 23.15 227.96 26.12 C 229.63 25.98 231.30 25.84 232.97 25.66 C 233.15 26.57 233.51 28.37 233.68 29.27 C 230.66 30.07 227.00 30.87 224.31 28.77 C 222.82 27.70 222.24 25.89 222.21 24.13 C 221.97 19.12 222.25 14.10 222.06 9.09 Z" />
<path fill="#e3e3e3" d=" M 60.83 13.05 C 62.58 13.02 64.34 12.99 66.09 12.97 C 67.24 16.61 68.41 20.25 69.60 23.87 C 70.62 20.27 71.52 16.64 72.39 13.00 C 74.19 13.00 75.98 12.99 77.78 12.98 C 75.99 19.22 74.05 25.45 71.28 31.33 C 70.32 33.26 68.93 35.24 66.74 35.87 C 64.87 36.10 62.97 35.97 61.09 35.96 C 61.11 34.71 61.14 33.45 61.18 32.20 C 63.49 32.17 65.83 31.89 67.40 29.98 C 64.89 24.47 62.52 18.88 60.83 13.05 Z" />
<path fill="#e3e3e3" d=" M 113.16 13.41 C 116.70 12.17 121.43 13.09 123.33 16.61 C 125.75 20.29 124.93 25.54 121.65 28.42 C 118.69 30.59 114.27 30.75 111.29 28.55 C 106.12 24.98 107.03 15.50 113.16 13.41 Z" />
<path fill="#e3e3e3" d=" M 130.66 13.05 C 134.26 13.18 138.94 11.97 141.43 15.36 C 143.71 19.88 142.55 25.14 142.81 30.00 C 141.07 30.00 139.33 30.00 137.59 30.00 C 137.48 25.96 138.06 21.81 137.04 17.85 C 135.96 16.81 134.25 17.13 132.91 16.76 C 132.89 21.17 132.90 25.58 132.90 30.00 C 131.28 30.00 129.67 30.00 128.06 30.00 C 128.05 24.80 128.08 19.60 128.02 14.40 C 128.68 14.06 130.00 13.38 130.66 13.05 Z" />
<path fill="#e3e3e3" d=" M 161.58 14.19 C 165.21 12.89 169.06 12.84 172.87 13.07 C 172.77 14.37 172.66 15.67 172.56 16.97 C 170.64 16.99 168.73 17.00 166.82 17.01 C 166.81 21.34 166.81 25.67 166.82 30.00 C 165.08 30.00 163.34 30.00 161.60 30.00 C 161.59 24.73 161.62 19.46 161.58 14.19 Z" />
<path fill="#e3e3e3" d=" M 174.72 13.02 C 176.42 13.01 178.12 13.00 179.82 12.99 C 179.82 18.66 179.82 24.33 179.82 30.01 C 178.12 30.00 176.42 29.99 174.72 29.98 C 174.72 24.33 174.72 18.67 174.72 13.02 Z" />
<path fill="#e3e3e3" d=" M 203.07 13.00 C 204.68 13.00 206.29 13.00 207.91 13.00 C 207.97 16.89 207.56 20.84 208.31 24.68 C 209.19 26.23 211.11 25.90 212.59 26.22 C 212.61 21.82 212.60 17.41 212.60 13.00 C 214.34 13.00 216.08 13.00 217.82 13.00 C 217.82 18.27 217.76 23.54 217.89 28.81 C 214.59 30.20 211.02 30.07 207.52 30.05 C 206.03 28.84 203.85 28.02 203.39 25.95 C 202.71 21.67 203.16 17.31 203.07 13.00 Z" />
<path fill="#e3e3e3" d=" M 241.43 13.41 C 244.90 12.20 249.49 13.03 251.45 16.41 C 252.34 18.48 252.43 20.76 252.74 22.96 C 248.71 23.01 244.67 22.97 240.64 23.08 C 241.68 24.12 242.73 25.14 243.78 26.16 C 246.17 26.11 248.58 25.86 250.86 25.07 C 251.06 26.01 251.46 27.90 251.66 28.84 C 247.79 30.37 242.94 30.91 239.32 28.48 C 234.11 24.87 235.37 15.43 241.43 13.41 Z" />
<path fill="#eb4814" d=" M 115.15 17.01 C 115.85 16.99 117.26 16.95 117.97 16.93 C 119.78 19.76 119.79 23.24 117.97 26.07 C 117.27 26.05 115.86 26.01 115.15 25.99 C 114.49 25.23 113.83 24.47 113.17 23.71 C 113.16 22.25 113.16 20.78 113.16 19.32 C 113.82 18.55 114.48 17.78 115.15 17.01 Z" />
<path fill="#eb4814" d=" M 188.92 17.20 C 190.25 17.08 191.59 16.96 192.92 16.83 C 195.03 19.69 194.88 23.63 192.29 26.13 C 191.45 26.08 189.75 26.00 188.90 25.95 C 188.89 23.03 188.90 20.12 188.92 17.20 Z" />
<path fill="#eb4814" d=" M 243.13 16.97 C 243.81 16.96 245.16 16.94 245.84 16.93 C 246.43 17.95 247.03 18.96 247.61 19.99 C 245.31 19.99 243.01 19.97 240.72 19.91 C 241.52 18.93 242.32 17.95 243.13 16.97 Z" />
<path fill="#e3e3e3" d=" M 266.89 23.92 C 267.66 23.92 269.21 23.91 269.98 23.91 C 271.85 25.75 271.90 28.27 269.97 30.09 C 269.20 30.09 267.67 30.09 266.90 30.08 C 264.87 28.33 264.88 25.69 266.89 23.92 Z" />
</svg>
